<svg xmlns="http://www.w3.org/2000/svg" width="1280" height="760" viewBox="0 0 1280 760" role="img" aria-labelledby="title desc">
  <title id="title">Preview do dashboard ResolveDesk SLA Hub</title>
  <desc id="desc">Dashboard escuro de helpdesk com risco de SLA, fila de tickets, carga dos agentes e painel de automação.</desc>
  <rect width="1280" height="760" fill="#08111f"/>
  <rect x="40" y="36" width="1200" height="688" rx="24" fill="#0d1728" stroke="#243854"/>
  <text x="76" y="92" fill="#f7fbff" font-family="Arial" font-size="34" font-weight="700">ResolveDesk SLA Hub</text>
  <text x="76" y="122" fill="#8da3bd" font-family="Arial" font-size="16">Fila de SLA, carga dos agentes e controle de automação</text>
  <g transform="translate(76 160)">
    <rect width="250" height="122" rx="18" fill="#12233a"/>
    <text x="22" y="38" fill="#8da3bd" font-family="Arial" font-size="14">Tickets abertos</text>
    <text x="22" y="84" fill="#ffffff" font-family="Arial" font-size="42" font-weight="700">4</text>
    <circle cx="210" cy="58" r="30" fill="#20d6a2" opacity=".2"/>
  </g>
  <g transform="translate(350 160)">
    <rect width="250" height="122" rx="18" fill="#221c34"/>
    <text x="22" y="38" fill="#b9a6ff" font-family="Arial" font-size="14">SLA quebrado</text>
    <text x="22" y="84" fill="#ffffff" font-family="Arial" font-size="42" font-weight="700">1</text>
    <circle cx="210" cy="58" r="30" fill="#ff6b81" opacity=".22"/>
  </g>
  <g transform="translate(624 160)">
    <rect width="250" height="122" rx="18" fill="#13253a"/>
    <text x="22" y="38" fill="#8da3bd" font-family="Arial" font-size="14">Vence em breve</text>
    <text x="22" y="84" fill="#ffffff" font-family="Arial" font-size="42" font-weight="700">2</text>
    <circle cx="210" cy="58" r="30" fill="#ffd166" opacity=".25"/>
  </g>
  <g transform="translate(898 160)">
    <rect width="250" height="122" rx="18" fill="#102d32"/>
    <text x="22" y="38" fill="#8da3bd" font-family="Arial" font-size="14">Ações de automação</text>
    <text x="22" y="84" fill="#ffffff" font-family="Arial" font-size="42" font-weight="700">3</text>
    <circle cx="210" cy="58" r="30" fill="#4cc9f0" opacity=".2"/>
  </g>
  <rect x="76" y="326" width="720" height="332" rx="22" fill="#101b2c" stroke="#243854"/>
  <text x="108" y="374" fill="#f7fbff" font-family="Arial" font-size="22" font-weight="700">Fila prioritária</text>
  <g fill="#172944">
    <rect x="108" y="402" width="640" height="54" rx="14"/>
    <rect x="108" y="470" width="640" height="54" rx="14"/>
    <rect x="108" y="538" width="640" height="54" rx="14"/>
  </g>
  <g font-family="Arial" font-size="15" fill="#d8e7f7">
    <text x="132" y="436">TCK-2401 - Checkout failures after gateway switch</text>
    <text x="132" y="504">TCK-2404 - API rate limit blocks nightly sync</text>
    <text x="132" y="572">TCK-2403 - Onboarding checklist for warehouse</text>
  </g>
  <rect x="828" y="326" width="320" height="332" rx="22" fill="#101b2c" stroke="#243854"/>
  <text x="860" y="374" fill="#f7fbff" font-family="Arial" font-size="22" font-weight="700">Carga dos agentes</text>
  <rect x="860" y="420" width="220" height="12" rx="6" fill="#243854"/>
  <rect x="860" y="420" width="160" height="12" rx="6" fill="#20d6a2"/>
  <rect x="860" y="486" width="220" height="12" rx="6" fill="#243854"/>
  <rect x="860" y="486" width="118" height="12" rx="6" fill="#4cc9f0"/>
  <rect x="860" y="552" width="220" height="12" rx="6" fill="#243854"/>
  <rect x="860" y="552" width="190" height="12" rx="6" fill="#ffd166"/>
</svg>
